<svg viewBox="0 0 510 85" xmlns="http://www.w3.org/2000/svg" xmlns:xlink="http://www.w3.org/1999/xlink"><defs><path d="M484.689 1445.2c-1.999 0-3.931-.15-5.797-.45-1.865-.3-3.58-.7-5.147-1.2-1.565-.5-2.964-1.05-4.197-1.65-1.233-.6-2.182-1.2-2.848-1.8.066-.667.133-1.55.2-2.65.066-1.1.166-2.217.3-3.35a88 88 0 0 1 .449-3.3c.167-1.067.383-1.9.65-2.5h2.498l5.997 9.7c.866.533 1.998.983 3.398 1.35 1.399.367 2.898.583 4.497.65v-28.5c-.267 0-.466-.067-.6-.2l-3.198-1.5a55.487 55.487 0 0 1-5.596-2.9 20.549 20.549 0 0 1-4.748-3.85c-1.366-1.5-2.465-3.25-3.298-5.25-.833-2-1.249-4.367-1.249-7.1 0-2.4.466-4.633 1.4-6.7a18.02 18.02 0 0 1 3.847-5.5c1.632-1.6 3.598-2.883 5.896-3.85 2.3-.967 4.814-1.55 7.546-1.75v-4.9h5.197v4.9c3.198.2 5.98.633 8.345 1.3s4.414 1.4 6.146 2.2c-.066 2.133-.35 3.9-.85 5.3-.499 1.4-1.015 2.633-1.548 3.7h-2.599l-4.997-6.8a26.481 26.481 0 0 0-2.099-.3 86.606 86.606 0 0 0-2.398-.2v26.7l2.898 1.3c2.066 1 4.081 2.05 6.047 3.15 1.965 1.1 3.714 2.4 5.247 3.9 1.532 1.5 2.765 3.317 3.697 5.45.933 2.133 1.4 4.767 1.4 7.9 0 4.867-1.7 8.967-5.097 12.3-3.398 3.333-8.129 5.367-14.192 6.1v6.1h-5.197v-5.8zm15.49-18c0-3.467-.999-6.217-2.997-8.25-2-2.033-4.431-3.717-7.296-5.05v25.6c2.998-.8 5.463-2.25 7.396-4.35 1.932-2.1 2.898-4.75 2.898-7.95zm-25.184-38.3c0 1.8.25 3.383.75 4.75a12.606 12.606 0 0 0 2.048 3.65 15.54 15.54 0 0 0 3.048 2.85 32.77 32.77 0 0 0 3.848 2.35v-24.4c-2.998.333-5.364 1.517-7.096 3.55-1.732 2.033-2.598 4.45-2.598 7.25zm68.66 51.6c1.865 0 3.597-.417 5.196-1.25a13.683 13.683 0 0 0 4.198-3.4c1.199-1.433 2.148-3.083 2.848-4.95.7-1.867 1.05-3.833 1.05-5.9 0-2.467-.384-4.633-1.15-6.5-.766-1.867-1.816-3.417-3.148-4.65a13.443 13.443 0 0 0-4.647-2.8c-1.766-.633-3.682-.95-5.747-.95h-6.496v-2.7l16.79-22.5 3.398-3.5v-.4l-5.397.6h-16.89l-3.898 10.2h-2.498c-.267-1.4-.517-2.9-.75-4.5-.233-1.6-.45-3.183-.65-4.75-.2-1.567-.366-3.083-.5-4.55a44.996 44.996 0 0 1-.199-4h39.077v3.1l-16.69 22.3-4.298 4.4v.2l3.398-.7c3.132.133 5.93.733 8.395 1.8 2.466 1.067 4.548 2.483 6.247 4.25 1.699 1.767 2.998 3.833 3.897 6.2.9 2.367 1.35 4.95 1.35 7.75 0 3.333-.667 6.35-2 9.05-1.332 2.7-3.114 5-5.346 6.9-2.232 1.9-4.797 3.367-7.695 4.4-2.899 1.033-5.947 1.55-9.145 1.55-1.533 0-3.165-.117-4.897-.35a37.35 37.35 0 0 1-5.097-1.05 39.88 39.88 0 0 1-4.647-1.6c-1.433-.6-2.649-1.3-3.648-2.1l2.798-9h1.999c.4.467.95 1.067 1.649 1.8.7.733 1.432 1.5 2.199 2.3.766.8 1.515 1.6 2.248 2.4.733.8 1.366 1.5 1.9 2.1.665.133 1.532.3 2.598.5 1.066.2 2.465.3 4.197.3zm115.331 3.5h-24.785v-2.9a37.608 37.608 0 0 1 3.997-1.35 122.15 122.15 0 0 1 4.098-1.05v-45l.4-11.7h-.8l-3.298 10.7-20.488 51.3h-2.598l-19.489-51.3-3.598-11.7h-.9l.1 12.7v45c1.267.267 2.533.6 3.799 1 1.265.4 2.531.867 3.797 1.4v2.9h-20.887v-2.9a45.96 45.96 0 0 1 3.947-1.45 35.976 35.976 0 0 1 4.148-1.05v-59.2a35.976 35.976 0 0 1-4.148-1.05 58.495 58.495 0 0 1-4.047-1.45v-2.9h20.488l17.39 45.7 3.397 10.3h.1l3.398-10.5 17.99-45.5h18.089v2.9a44.807 44.807 0 0 1-3.698 1.45 30.502 30.502 0 0 1-3.898 1.05v59.4c1.4.267 2.716.583 3.948.95 1.233.367 2.415.817 3.548 1.35v2.9zm33.28 0H670.08v-2.5c1-.533 2.033-.983 3.099-1.35a49.68 49.68 0 0 1 3.498-1.05v-39.3l-6.597-.8v-2.6a49.79 49.79 0 0 1 6.297-2.1c2.265-.6 4.53-1.1 6.796-1.5h2.498v46.3a43.81 43.81 0 0 1 3.598 1.05c1.066.367 2.066.817 2.998 1.35v2.5zm-17.49-67c0-1.8.584-3.233 1.75-4.3 1.166-1.067 2.715-1.6 4.647-1.6 1.932 0 3.465.533 4.597 1.6 1.133 1.067 1.7 2.5 1.7 4.3 0 1.8-.567 3.217-1.7 4.25-1.132 1.033-2.665 1.55-4.597 1.55-1.932 0-3.481-.517-4.647-1.55-1.166-1.033-1.75-2.45-1.75-4.25zm51.57 67H704.16v-2.5c2.2-1.067 4.398-1.867 6.596-2.4v-63.3l-7.595-.8v-2.6c1.732-.8 3.898-1.5 6.496-2.1 2.599-.6 5.13-1.1 7.596-1.5h2.498v70.3c2.199.533 4.398 1.333 6.596 2.4v2.5zm34.08 0H738.24v-2.5c2.199-1.067 4.398-1.867 6.596-2.4v-63.3l-7.595-.8v-2.6c1.732-.8 3.898-1.5 6.496-2.1 2.598-.6 5.13-1.1 7.595-1.5h2.499v70.3c2.199.533 4.397 1.333 6.596 2.4v2.5zm34.08 0h-22.187v-2.5c1-.533 2.032-.983 3.098-1.35a49.68 49.68 0 0 1 3.498-1.05v-39.3l-6.596-.8v-2.6c1.932-.8 4.031-1.5 6.296-2.1 2.266-.6 4.531-1.1 6.796-1.5h2.499v46.3a43.81 43.81 0 0 1 3.598 1.05c1.066.367 2.065.817 2.998 1.35v2.5zm-17.49-67c0-1.8.583-3.233 1.75-4.3 1.165-1.067 2.714-1.6 4.647-1.6 1.932 0 3.464.533 4.597 1.6 1.133 1.067 1.699 2.5 1.699 4.3 0 1.8-.566 3.217-1.7 4.25-1.132 1.033-2.664 1.55-4.596 1.55-1.933 0-3.482-.517-4.648-1.55-1.166-1.033-1.749-2.45-1.749-4.25zm29.383 42c0-4.2.55-7.917 1.649-11.15 1.1-3.233 2.682-5.967 4.747-8.2 2.066-2.233 4.548-3.933 7.446-5.1 2.898-1.167 6.113-1.75 9.644-1.75 4.131 0 7.696.633 10.694 1.9 2.998 1.267 5.447 3.05 7.345 5.35 1.9 2.3 3.299 5.05 4.198 8.25.9 3.2 1.35 6.767 1.35 10.7 0 8.4-2.133 14.867-6.397 19.4-4.264 4.533-9.994 6.8-17.19 6.8-3.998 0-7.462-.617-10.394-1.85-2.931-1.233-5.363-3-7.295-5.3-1.933-2.3-3.382-5.067-4.348-8.3-.966-3.233-1.449-6.817-1.449-10.75zm9.594 0c0 3 .283 5.833.85 8.5.566 2.667 1.466 4.983 2.698 6.95a13.5 13.5 0 0 0 4.847 4.65c2 1.133 4.398 1.7 7.196 1.7 3.598 0 6.546-1.767 8.845-5.3 2.299-3.533 3.448-9.033 3.448-16.5 0-3.067-.283-5.917-.85-8.55-.566-2.633-1.449-4.933-2.648-6.9-1.2-1.967-2.732-3.517-4.597-4.65-1.866-1.133-4.098-1.7-6.696-1.7-3.931 0-7.096 1.767-9.495 5.3-2.398 3.533-3.598 9.033-3.598 16.5zm103.24 25h-21.488v-2.5c1.799-.933 3.764-1.733 5.897-2.4v-23.7c0-5.067-.733-9.067-2.2-12-1.465-2.933-4.13-4.4-7.994-4.4-1.666 0-3.215.3-4.648.9a12.6 12.6 0 0 0-3.797 2.45 17.007 17.007 0 0 0-2.849 3.5c-.8 1.3-1.432 2.65-1.899 4.05v29.2c2.066.4 4.065 1.2 5.997 2.4v2.5h-21.587v-2.5c1.665-.867 3.864-1.667 6.596-2.4v-39.3l-6.596-.8v-2.6c1.732-.733 3.73-1.4 5.996-2 2.265-.6 4.63-1.133 7.096-1.6h2.498v11.2h.1c1.4-3.067 3.415-5.7 6.047-7.9 2.632-2.2 5.813-3.3 9.544-3.3 2.665 0 5.047.317 7.146.95s3.848 1.75 5.247 3.35 2.465 3.75 3.198 6.45c.733 2.7 1.1 6.117 1.1 10.25v25.3c2.664.467 4.863 1.267 6.595 2.4v2.5zm9.894-37h19.788v-21h5.297v21H974v5.3h-19.788v21.5h-5.297v-21.5h-19.788v-5.3z" id="b"/><filter x="-.7%" y="-4.2%" width="101.4%" height="108.4%" filterUnits="objectBoundingBox" id="a"><feMorphology radius="1" in="SourceAlpha" result="shadowSpreadInner1"/><feGaussianBlur stdDeviation="2" in="shadowSpreadInner1" result="shadowBlurInner1"/><feOffset dy="1" in="shadowBlurInner1" result="shadowOffsetInner1"/><feComposite in="shadowOffsetInner1" in2="SourceAlpha" operator="arithmetic" k2="-1" k3="1" result="shadowInnerInner1"/><feColorMatrix values="0 0 0 0 0.694781037 0 0 0 0 0.517246477 0 0 0 0 0.42519152 0 0 0 0.5 0" in="shadowInnerInner1"/></filter><filter x="-.7%" y="-4.2%" width="101.4%" height="108.4%" filterUnits="objectBoundingBox" id="c"><feMorphology radius="1" in="SourceAlpha" result="shadowSpreadInner1"/><feGaussianBlur stdDeviation="2" in="shadowSpreadInner1" result="shadowBlurInner1"/><feOffset dy="1" in="shadowBlurInner1" result="shadowOffsetInner1"/><feComposite in="shadowOffsetInner1" in2="SourceAlpha" operator="arithmetic" k2="-1" k3="1" result="shadowInnerInner1"/><feColorMatrix values="0 0 0 0 0.694781037 0 0 0 0 0.517246477 0 0 0 0 0.42519152 0 0 0 0.5 0" in="shadowInnerInner1"/></filter></defs><g transform="translate(-465 -1367)" fill-rule="evenodd"><use filter="url(#a)" xlink:href="#b"/><use filter="url(#c)" xlink:href="#b"/></g></svg>